<svg xmlns="http://www.w3.org/2000/svg" viewBox="0 0 120 120" role="img" aria-label="Airtel Logo Placeholder">
  <defs>
    <linearGradient id="r" x1="0" x2="1" y1="0" y2="1">
      <stop offset="0%" stop-color="#ff4d4d"/>
      <stop offset="100%" stop-color="#d40000"/>
    </linearGradient>
  </defs>
  <rect width="120" height="120" rx="24" fill="url(#r)"/>
  <path d="M63 26c-11 1-19 9-19 19 0 9 7 15 15 15 5 0 9-2 12-5 2-3 3-6 3-9 0-7-6-13-13-13-8 0-14 6-14 14 0 7 6 13 13 13 4 0 7-1 10-4l1 1c-3 4-8 7-14 7-10 0-19-8-19-19 0-12 10-22 22-22 12 0 22 10 22 22 0 6-2 11-6 15-4 4-10 7-16 7-13 0-24-11-24-24 0-14 11-25 25-25 8 0 16 4 21 10l-7 7c-3-4-8-7-14-6z" fill="#fff"/>
</svg>